<?xml version="1.0" encoding="utf-8"?>
<!-- Generator: Adobe Illustrator 26.0.3, SVG Export Plug-In . SVG Version: 6.00 Build 0)  -->
<svg version="1.1" id="Layer_1" xmlns="http://www.w3.org/2000/svg" xmlns:xlink="http://www.w3.org/1999/xlink" x="0px" y="0px"
	 viewBox="0 0 29.6 29.7" style="enable-background:new 0 0 29.6 29.7;" xml:space="preserve">
<style type="text/css">
	.st0{fill:#FFFF3D;stroke:#000000;stroke-miterlimit:10;}
</style>
<path class="st0" d="M19.1,15.8l4.2,6.9c0,0,0,0.1-0.1,0.1l-7.1-3.8c0,0,0,0-0.1,0l-5.3,6.1c0,0-0.1,0-0.1,0l1.5-8c0,0,0,0,0,0
	l-7.5-3.1c0,0,0-0.1,0-0.1l8-1.1c0,0,0,0,0,0l0.6-8.1c0-0.1,0.1-0.1,0.1,0l3.5,7.3c0,0,0,0,0,0l7.9-1.9c0,0,0.1,0.1,0,0.1L19.1,15.8
	C19,15.7,19,15.8,19.1,15.8z"/>
</svg>
